<svg width="209" height="70" viewBox="0 0 209 70" fill="none" xmlns="http://www.w3.org/2000/svg">
<rect width="209" height="70" rx="14.7867" fill="#2F2B43" fill-opacity="0.04"/>
<path d="M22.0004 33.1004C27.3023 33.1004 31.6004 28.8023 31.6004 23.5004C31.6004 18.1985 27.3023 13.9004 22.0004 13.9004C16.6985 13.9004 12.4004 18.1985 12.4004 23.5004C12.4004 28.8023 16.6985 33.1004 22.0004 33.1004Z" fill="#FC3F1D"/>
<path d="M25.4739 29.5274H23.3665V19.1044H22.4277C20.7069 19.1044 19.8055 19.9648 19.8055 21.2492C19.8055 22.7064 20.4272 23.3816 21.7134 24.242L22.7733 24.9563L19.7271 29.5257H17.4612L20.2028 25.4462C18.6262 24.3204 17.7391 23.2213 17.7391 21.3668C17.7391 19.0492 19.3548 17.4727 22.4135 17.4727H25.4597V29.5239H25.4739V29.5274Z" fill="white"/>
<path d="M52.4968 28.041H50.7781V31H47.8289V28.041H41.7351V25.9414L47.9949 16.7227H50.7781V25.6973H52.4968V28.041ZM47.8289 25.6973V23.2754C47.8289 23.0475 47.8321 22.7773 47.8386 22.4648C47.8516 22.1523 47.8647 21.8398 47.8777 21.5273C47.8907 21.2148 47.9037 20.9382 47.9167 20.6973C47.9363 20.4499 47.9493 20.2773 47.9558 20.1797H47.8777C47.754 20.4466 47.6238 20.707 47.4871 20.9609C47.3503 21.2083 47.1908 21.4688 47.0085 21.7422L44.3914 25.6973H47.8289ZM57.1746 28.6758L57.321 28.9004C57.2039 29.3691 57.0509 29.8737 56.8621 30.4141C56.6798 30.9544 56.4779 31.4948 56.2566 32.0352C56.0417 32.5755 55.8236 33.0898 55.6023 33.5781H53.4539C53.5841 33.0508 53.711 32.4974 53.8347 31.918C53.9584 31.3385 54.0723 30.7689 54.1765 30.209C54.2872 29.6491 54.3751 29.138 54.4402 28.6758H57.1746ZM64.2644 16.5371C65.0847 16.5371 65.8399 16.6641 66.53 16.918C67.2266 17.1719 67.7833 17.556 68.2 18.0703C68.6166 18.5781 68.825 19.2161 68.825 19.9844C68.825 20.5573 68.711 21.0586 68.4832 21.4883C68.2618 21.918 67.9591 22.2956 67.575 22.6211C67.1908 22.9401 66.7546 23.2201 66.2664 23.4609C66.7742 23.7279 67.2559 24.0404 67.7117 24.3984C68.1674 24.75 68.5385 25.1634 68.825 25.6387C69.1179 26.1139 69.2644 26.6673 69.2644 27.2988C69.2644 28.0931 69.0528 28.7832 68.6296 29.3691C68.2065 29.9486 67.6205 30.3978 66.8718 30.7168C66.1231 31.0358 65.254 31.1953 64.2644 31.1953C63.1967 31.1953 62.2885 31.0423 61.5398 30.7363C60.7911 30.4303 60.2214 29.9941 59.8308 29.4277C59.4402 28.8548 59.2449 28.1712 59.2449 27.377C59.2449 26.7259 59.3653 26.1595 59.6062 25.6777C59.8536 25.196 60.1856 24.7826 60.6023 24.4375C61.019 24.0859 61.4779 23.7865 61.9792 23.5391C61.5561 23.2721 61.1687 22.9694 60.8171 22.6309C60.4721 22.2923 60.1954 21.9049 59.9871 21.4688C59.7852 21.0326 59.6843 20.5312 59.6843 19.9648C59.6843 19.2096 59.8959 18.5781 60.3191 18.0703C60.7488 17.5625 61.3119 17.1816 62.0085 16.9277C62.7052 16.6673 63.4571 16.5371 64.2644 16.5371ZM62.0378 27.2012C62.0378 27.7155 62.2201 28.1419 62.5847 28.4805C62.9558 28.8125 63.5027 28.9785 64.2253 28.9785C64.974 28.9785 65.5339 28.819 65.905 28.5C66.2761 28.1745 66.4617 27.748 66.4617 27.2207C66.4617 26.8561 66.3542 26.5371 66.1394 26.2637C65.9311 25.9902 65.6674 25.7461 65.3484 25.5312C65.0294 25.3099 64.7071 25.1048 64.3816 24.916L64.1179 24.7793C63.7013 24.9681 63.3367 25.1797 63.0242 25.4141C62.7182 25.6484 62.4773 25.9121 62.3015 26.2051C62.1257 26.498 62.0378 26.8301 62.0378 27.2012ZM64.2449 18.7441C63.7501 18.7441 63.3399 18.8711 63.0144 19.125C62.6889 19.3789 62.5261 19.737 62.5261 20.1992C62.5261 20.5247 62.6042 20.8112 62.7605 21.0586C62.9233 21.2995 63.1348 21.5111 63.3953 21.6934C63.6622 21.8757 63.9519 22.0449 64.2644 22.2012C64.5639 22.0579 64.8438 21.8984 65.1042 21.7227C65.3647 21.5469 65.5763 21.3353 65.739 21.0879C65.9018 20.8405 65.9832 20.5443 65.9832 20.1992C65.9832 19.737 65.8171 19.3789 65.4851 19.125C65.1596 18.8711 64.7462 18.7441 64.2449 18.7441Z" fill="#140A32"/>
<path fill-rule="evenodd" clip-rule="evenodd" d="M93.065 16.5027C93.5219 15.5824 94.8385 15.5824 95.2953 16.5027L97.1124 20.1627L101.177 20.7535C102.194 20.9012 102.608 22.1505 101.865 22.8705L98.9263 25.7161L99.6197 29.7354C99.7956 30.7556 98.7219 31.518 97.8154 31.0441L94.1802 29.1432L90.5449 31.0441C89.6385 31.518 88.5647 30.7556 88.7407 29.7354L89.434 25.7161L86.4957 22.8705C85.7522 22.1505 86.1666 20.9012 87.1832 20.7535L91.248 20.1627L93.065 16.5027Z" fill="#F5AF40"/>
<path fill-rule="evenodd" clip-rule="evenodd" d="M116.065 16.5027C116.522 15.5824 117.838 15.5824 118.295 16.5027L120.112 20.1627L124.177 20.7535C125.194 20.9012 125.608 22.1505 124.865 22.8705L121.926 25.7161L122.62 29.7354C122.796 30.7556 121.722 31.518 120.815 31.0441L117.18 29.1432L113.545 31.0441C112.638 31.518 111.565 30.7556 111.741 29.7354L112.434 25.7161L109.496 22.8705C108.752 22.1505 109.167 20.9012 110.183 20.7535L114.248 20.1627L116.065 16.5027Z" fill="#F5AF40"/>
<path fill-rule="evenodd" clip-rule="evenodd" d="M139.065 16.5027C139.522 15.5824 140.838 15.5824 141.295 16.5027L143.112 20.1627L147.177 20.7535C148.194 20.9012 148.608 22.1505 147.865 22.8705L144.926 25.7161L145.62 29.7354C145.796 30.7556 144.722 31.518 143.815 31.0441L140.18 29.1432L136.545 31.0441C135.638 31.518 134.565 30.7556 134.741 29.7354L135.434 25.7161L132.496 22.8705C131.752 22.1505 132.167 20.9012 133.183 20.7535L137.248 20.1627L139.065 16.5027Z" fill="#F5AF40"/>
<path fill-rule="evenodd" clip-rule="evenodd" d="M162.065 16.5027C162.522 15.5824 163.838 15.5824 164.295 16.5027L166.112 20.1627L170.177 20.7535C171.194 20.9012 171.608 22.1505 170.865 22.8705L167.926 25.7161L168.62 29.7354C168.796 30.7556 167.722 31.518 166.815 31.0441L163.18 29.1432L159.545 31.0441C158.638 31.518 157.565 30.7556 157.741 29.7354L158.434 25.7161L155.496 22.8705C154.752 22.1505 155.167 20.9012 156.183 20.7535L160.248 20.1627L162.065 16.5027Z" fill="#F5AF40"/>
<path fill-rule="evenodd" clip-rule="evenodd" d="M185.065 16.5027C185.522 15.5824 186.838 15.5824 187.295 16.5027L189.112 20.1627L193.177 20.7535C194.194 20.9012 194.608 22.1505 193.865 22.8705L190.926 25.7161L191.62 29.7354C191.796 30.7556 190.722 31.518 189.815 31.0441L186.18 29.1432L182.545 31.0441C181.638 31.518 180.565 30.7556 180.741 29.7354L181.434 25.7161L178.496 22.8705C177.752 22.1505 178.167 20.9012 179.183 20.7535L183.248 20.1627L185.065 16.5027Z" fill="#F5AF40"/>
<path d="M13.4102 46.4336C14.5156 46.4336 15.3223 46.6504 15.8301 47.084C16.3418 47.5137 16.5977 48.1309 16.5977 48.9355C16.5977 49.2988 16.5371 49.6445 16.416 49.9727C16.2988 50.2969 16.1074 50.584 15.8418 50.834C15.5762 51.0801 15.2266 51.2754 14.793 51.4199C14.3633 51.5605 13.8359 51.6309 13.2109 51.6309H12.168V55H11.1719V46.4336H13.4102ZM13.3164 47.2832H12.168V50.7754H13.0996C13.6465 50.7754 14.1016 50.7168 14.4648 50.5996C14.832 50.4824 15.1074 50.293 15.291 50.0312C15.4746 49.7656 15.5664 49.4141 15.5664 48.9766C15.5664 48.4062 15.3848 47.9824 15.0215 47.7051C14.6582 47.4238 14.0898 47.2832 13.3164 47.2832ZM20.7168 48.4609C21.2637 48.4609 21.7324 48.582 22.123 48.8242C22.5137 49.0664 22.8125 49.4062 23.0195 49.8438C23.2266 50.2773 23.3301 50.7852 23.3301 51.3672V51.9707H18.8945C18.9062 52.7246 19.0938 53.2988 19.457 53.6934C19.8203 54.0879 20.332 54.2852 20.9922 54.2852C21.3984 54.2852 21.7578 54.248 22.0703 54.1738C22.3828 54.0996 22.707 53.9902 23.043 53.8457V54.7012C22.7188 54.8457 22.3965 54.9512 22.0762 55.0176C21.7598 55.084 21.3848 55.1172 20.9512 55.1172C20.334 55.1172 19.7949 54.9922 19.334 54.7422C18.877 54.4883 18.5215 54.1172 18.2676 53.6289C18.0137 53.1406 17.8867 52.543 17.8867 51.8359C17.8867 51.1445 18.002 50.5469 18.2324 50.043C18.4668 49.5352 18.7949 49.1445 19.2168 48.8711C19.6426 48.5977 20.1426 48.4609 20.7168 48.4609ZM20.7051 49.2578C20.1855 49.2578 19.7715 49.4277 19.4629 49.7676C19.1543 50.1074 18.9707 50.582 18.9121 51.1914H22.3105C22.3066 50.8086 22.2461 50.4727 22.1289 50.1836C22.0156 49.8906 21.8418 49.6641 21.6074 49.5039C21.373 49.3398 21.0723 49.2578 20.7051 49.2578ZM25.9082 48.5781V52.6152C25.9082 52.6934 25.9062 52.7949 25.9023 52.9199C25.8984 53.041 25.8926 53.1719 25.8848 53.3125C25.877 53.4492 25.8691 53.582 25.8613 53.7109C25.8574 53.8359 25.8516 53.9395 25.8438 54.0215L29.3477 48.5781H30.543V55H29.6348V51.0625C29.6348 50.9375 29.6367 50.7773 29.6406 50.582C29.6445 50.3867 29.6504 50.1953 29.6582 50.0078C29.666 49.8164 29.6719 49.668 29.6758 49.5625L26.1836 55H24.9824V48.5781H25.9082ZM30.0625 45.9355C30.0273 46.3301 29.9277 46.6602 29.7637 46.9258C29.6035 47.1914 29.3672 47.3926 29.0547 47.5293C28.7422 47.6621 28.3418 47.7285 27.8535 47.7285C27.3496 47.7285 26.9434 47.6641 26.6348 47.5352C26.3301 47.4023 26.1035 47.2031 25.9551 46.9375C25.8105 46.6719 25.7246 46.3379 25.6973 45.9355H26.6113C26.6543 46.3652 26.7695 46.6582 26.957 46.8145C27.1445 46.9707 27.4492 47.0488 27.8711 47.0488C28.2461 47.0488 28.541 46.9668 28.7559 46.8027C28.9707 46.6387 29.0996 46.3496 29.1426 45.9355H30.0625ZM36.9883 49.4043H34.873V55H33.9121V49.4043H31.8262V48.5781H36.9883V49.4043ZM39.1855 48.5781V52.6152C39.1855 52.6934 39.1836 52.7949 39.1797 52.9199C39.1758 53.041 39.1699 53.1719 39.1621 53.3125C39.1543 53.4492 39.1465 53.582 39.1387 53.7109C39.1348 53.8359 39.1289 53.9395 39.1211 54.0215L42.625 48.5781H43.8203V55H42.9121V51.0625C42.9121 50.9375 42.9141 50.7773 42.918 50.582C42.9219 50.3867 42.9277 50.1953 42.9355 50.0078C42.9434 49.8164 42.9492 49.668 42.9531 49.5625L39.4609 55H38.2598V48.5781H39.1855ZM46.8672 48.5781V51.2734H50.4473V48.5781H51.4199V55H50.4473V52.0996H46.8672V55H45.8887V48.5781H46.8672ZM57.3789 48.5781V49.4043H54.4609V55H53.4824V48.5781H57.3789ZM67.3164 51.7773C67.3164 52.3047 67.248 52.7754 67.1113 53.1895C66.9746 53.6035 66.7773 53.9531 66.5195 54.2383C66.2617 54.5234 65.9492 54.7422 65.582 54.8945C65.2188 55.043 64.8066 55.1172 64.3457 55.1172C63.916 55.1172 63.5215 55.043 63.1621 54.8945C62.8066 54.7422 62.498 54.5234 62.2363 54.2383C61.9785 53.9531 61.7773 53.6035 61.6328 53.1895C61.4922 52.7754 61.4219 52.3047 61.4219 51.7773C61.4219 51.0742 61.541 50.4766 61.7793 49.9844C62.0176 49.4883 62.3574 49.1113 62.7988 48.8535C63.2441 48.5918 63.7734 48.4609 64.3867 48.4609C64.9727 48.4609 65.4844 48.5918 65.9219 48.8535C66.3633 49.1152 66.7051 49.4941 66.9473 49.9902C67.1934 50.4824 67.3164 51.0781 67.3164 51.7773ZM62.4297 51.7773C62.4297 52.293 62.498 52.7402 62.6348 53.1191C62.7715 53.498 62.9824 53.791 63.2676 53.998C63.5527 54.2051 63.9199 54.3086 64.3691 54.3086C64.8145 54.3086 65.1797 54.2051 65.4648 53.998C65.7539 53.791 65.9668 53.498 66.1035 53.1191C66.2402 52.7402 66.3086 52.293 66.3086 51.7773C66.3086 51.2656 66.2402 50.8242 66.1035 50.4531C65.9668 50.0781 65.7559 49.7891 65.4707 49.5859C65.1855 49.3828 64.8164 49.2812 64.3633 49.2812C63.6953 49.2812 63.2051 49.502 62.8926 49.9434C62.584 50.3848 62.4297 50.9961 62.4297 51.7773ZM72.0156 48.4609C72.8164 48.4609 73.4551 48.7363 73.9316 49.2871C74.4082 49.8379 74.6465 50.666 74.6465 51.7715C74.6465 52.502 74.5371 53.1152 74.3184 53.6113C74.0996 54.1074 73.791 54.4824 73.3926 54.7363C72.998 54.9902 72.5312 55.1172 71.9922 55.1172C71.6523 55.1172 71.3535 55.0723 71.0957 54.9824C70.8379 54.8926 70.6172 54.7715 70.4336 54.6191C70.25 54.4668 70.0977 54.3008 69.9766 54.1211H69.9062C69.918 54.2734 69.9316 54.457 69.9473 54.6719C69.9668 54.8867 69.9766 55.0742 69.9766 55.2344V57.8711H68.998V48.5781H69.8008L69.9297 49.5273H69.9766C70.1016 49.332 70.2539 49.1543 70.4336 48.9941C70.6133 48.8301 70.832 48.7012 71.0898 48.6074C71.3516 48.5098 71.6602 48.4609 72.0156 48.4609ZM71.8457 49.2812C71.4004 49.2812 71.041 49.3672 70.7676 49.5391C70.498 49.7109 70.3008 49.9688 70.1758 50.3125C70.0508 50.6523 69.9844 51.0801 69.9766 51.5957V51.7832C69.9766 52.3262 70.0352 52.7852 70.1523 53.1602C70.2734 53.5352 70.4707 53.8203 70.7441 54.0156C71.0215 54.2109 71.3926 54.3086 71.8574 54.3086C72.2559 54.3086 72.5879 54.2012 72.8535 53.9863C73.1191 53.7715 73.3164 53.4727 73.4453 53.0898C73.5781 52.7031 73.6445 52.2598 73.6445 51.7598C73.6445 51.002 73.4961 50.4004 73.1992 49.9551C72.9062 49.5059 72.4551 49.2812 71.8457 49.2812ZM80.2422 48.5781V49.4043H77.3242V55H76.3457V48.5781H80.2422ZM83.9277 48.4727C84.6934 48.4727 85.2617 48.6445 85.6328 48.9883C86.0039 49.332 86.1895 49.8809 86.1895 50.6348V55H85.4805L85.293 54.0508H85.2461C85.0664 54.2852 84.8789 54.4824 84.6836 54.6426C84.4883 54.7988 84.2617 54.918 84.0039 55C83.75 55.0781 83.4375 55.1172 83.0664 55.1172C82.6758 55.1172 82.3281 55.0488 82.0234 54.9121C81.7227 54.7754 81.4844 54.5684 81.3086 54.291C81.1367 54.0137 81.0508 53.6621 81.0508 53.2363C81.0508 52.5957 81.3047 52.1035 81.8125 51.7598C82.3203 51.416 83.0938 51.2285 84.1328 51.1973L85.2402 51.1504V50.7578C85.2402 50.2031 85.1211 49.8145 84.8828 49.5918C84.6445 49.3691 84.3086 49.2578 83.875 49.2578C83.5391 49.2578 83.2188 49.3066 82.9141 49.4043C82.6094 49.502 82.3203 49.6172 82.0469 49.75L81.748 49.0117C82.0371 48.8633 82.3691 48.7363 82.7441 48.6309C83.1191 48.5254 83.5137 48.4727 83.9277 48.4727ZM85.2285 51.8359L84.25 51.877C83.4492 51.9082 82.8848 52.0391 82.5566 52.2695C82.2285 52.5 82.0645 52.8262 82.0645 53.248C82.0645 53.6152 82.1758 53.8867 82.3984 54.0625C82.6211 54.2383 82.916 54.3262 83.2832 54.3262C83.8535 54.3262 84.3203 54.168 84.6836 53.8516C85.0469 53.5352 85.2285 53.0605 85.2285 52.4277V51.8359ZM89.1719 48.5781V51.2734H92.752V48.5781H93.7246V55H92.752V52.0996H89.1719V55H88.1934V48.5781H89.1719ZM96.7129 48.5781V52.6152C96.7129 52.6934 96.7109 52.7949 96.707 52.9199C96.7031 53.041 96.6973 53.1719 96.6895 53.3125C96.6816 53.4492 96.6738 53.582 96.666 53.7109C96.6621 53.8359 96.6562 53.9395 96.6484 54.0215L100.152 48.5781H101.348V55H100.439V51.0625C100.439 50.9375 100.441 50.7773 100.445 50.582C100.449 50.3867 100.455 50.1953 100.463 50.0078C100.471 49.8164 100.477 49.668 100.48 49.5625L96.9883 55H95.7871V48.5781H96.7129ZM105.068 48.4609C105.549 48.4609 105.965 48.5273 106.316 48.6602C106.668 48.7891 106.939 48.9785 107.131 49.2285C107.322 49.4785 107.418 49.7832 107.418 50.1426C107.418 50.5293 107.312 50.8379 107.102 51.0684C106.891 51.2988 106.6 51.4648 106.229 51.5664V51.6133C106.49 51.6836 106.727 51.7852 106.938 51.918C107.152 52.0469 107.322 52.2188 107.447 52.4336C107.576 52.6445 107.641 52.9082 107.641 53.2246C107.641 53.584 107.543 53.9082 107.348 54.1973C107.152 54.4824 106.855 54.707 106.457 54.8711C106.059 55.0352 105.555 55.1172 104.945 55.1172C104.645 55.1172 104.359 55.0996 104.09 55.0645C103.82 55.0332 103.576 54.9863 103.357 54.9238C103.139 54.8613 102.947 54.7871 102.783 54.7012V53.8164C103.057 53.9492 103.377 54.0664 103.744 54.168C104.111 54.2695 104.508 54.3203 104.934 54.3203C105.262 54.3203 105.557 54.2832 105.818 54.209C106.08 54.1309 106.287 54.0078 106.439 53.8398C106.596 53.668 106.674 53.4434 106.674 53.166C106.674 52.9121 106.605 52.7031 106.469 52.5391C106.332 52.3711 106.127 52.248 105.854 52.1699C105.584 52.0879 105.242 52.0469 104.828 52.0469H103.967V51.25H104.676C105.227 51.25 105.666 51.1719 105.994 51.0156C106.322 50.8594 106.486 50.5957 106.486 50.2246C106.486 49.9043 106.359 49.666 106.105 49.5098C105.852 49.3496 105.488 49.2695 105.016 49.2695C104.664 49.2695 104.354 49.3066 104.084 49.3809C103.814 49.4512 103.523 49.5527 103.211 49.6855L102.865 48.9062C103.201 48.7578 103.553 48.6465 103.92 48.5723C104.287 48.498 104.67 48.4609 105.068 48.4609ZM111.619 48.4727C112.385 48.4727 112.953 48.6445 113.324 48.9883C113.695 49.332 113.881 49.8809 113.881 50.6348V55H113.172L112.984 54.0508H112.938C112.758 54.2852 112.57 54.4824 112.375 54.6426C112.18 54.7988 111.953 54.918 111.695 55C111.441 55.0781 111.129 55.1172 110.758 55.1172C110.367 55.1172 110.02 55.0488 109.715 54.9121C109.414 54.7754 109.176 54.5684 109 54.291C108.828 54.0137 108.742 53.6621 108.742 53.2363C108.742 52.5957 108.996 52.1035 109.504 51.7598C110.012 51.416 110.785 51.2285 111.824 51.1973L112.932 51.1504V50.7578C112.932 50.2031 112.812 49.8145 112.574 49.5918C112.336 49.3691 112 49.2578 111.566 49.2578C111.23 49.2578 110.91 49.3066 110.605 49.4043C110.301 49.502 110.012 49.6172 109.738 49.75L109.439 49.0117C109.729 48.8633 110.061 48.7363 110.436 48.6309C110.811 48.5254 111.205 48.4727 111.619 48.4727ZM112.92 51.8359L111.941 51.877C111.141 51.9082 110.576 52.0391 110.248 52.2695C109.92 52.5 109.756 52.8262 109.756 53.248C109.756 53.6152 109.867 53.8867 110.09 54.0625C110.312 54.2383 110.607 54.3262 110.975 54.3262C111.545 54.3262 112.012 54.168 112.375 53.8516C112.738 53.5352 112.92 53.0605 112.92 52.4277V51.8359ZM122.137 57.2207H121.188V55H115.885V48.5781H116.863V54.1738H120.268V48.5781H121.24V54.1855H122.137V57.2207ZM124.322 48.5781V52.6152C124.322 52.6934 124.32 52.7949 124.316 52.9199C124.312 53.041 124.307 53.1719 124.299 53.3125C124.291 53.4492 124.283 53.582 124.275 53.7109C124.271 53.8359 124.266 53.9395 124.258 54.0215L127.762 48.5781H128.957V55H128.049V51.0625C128.049 50.9375 128.051 50.7773 128.055 50.582C128.059 50.3867 128.064 50.1953 128.072 50.0078C128.08 49.8164 128.086 49.668 128.09 49.5625L124.598 55H123.396V48.5781H124.322ZM131.951 48.5781V52.6152C131.951 52.6934 131.949 52.7949 131.945 52.9199C131.941 53.041 131.936 53.1719 131.928 53.3125C131.92 53.4492 131.912 53.582 131.904 53.7109C131.9 53.8359 131.895 53.9395 131.887 54.0215L135.391 48.5781H136.586V55H135.678V51.0625C135.678 50.9375 135.68 50.7773 135.684 50.582C135.688 50.3867 135.693 50.1953 135.701 50.0078C135.709 49.8164 135.715 49.668 135.719 49.5625L132.227 55H131.025V48.5781H131.951ZM146.875 50.1895C146.875 50.5918 146.758 50.9062 146.523 51.1328C146.289 51.3555 145.986 51.5059 145.615 51.584V51.6309C146.018 51.6855 146.363 51.8301 146.652 52.0645C146.945 52.2949 147.092 52.6484 147.092 53.125C147.092 53.4922 147.004 53.8164 146.828 54.0977C146.652 54.3789 146.377 54.5996 146.002 54.7598C145.627 54.9199 145.139 55 144.537 55H141.771V48.5781H144.514C144.975 48.5781 145.381 48.6309 145.732 48.7363C146.088 48.8379 146.367 49.0059 146.57 49.2402C146.773 49.4746 146.875 49.791 146.875 50.1895ZM146.078 53.125C146.078 52.7461 145.934 52.4727 145.645 52.3047C145.359 52.1367 144.943 52.0527 144.396 52.0527H142.75V54.209H144.42C144.959 54.209 145.369 54.127 145.65 53.9629C145.936 53.7949 146.078 53.5156 146.078 53.125ZM145.885 50.3008C145.885 49.9961 145.773 49.7695 145.551 49.6211C145.328 49.4688 144.963 49.3926 144.455 49.3926H142.75V51.2383H144.285C144.812 51.2383 145.211 51.1621 145.48 51.0098C145.75 50.8574 145.885 50.6211 145.885 50.3008ZM154.416 51.4199L152.189 55H151.023L153.42 51.2383C153.107 51.1406 152.814 51.002 152.541 50.8223C152.271 50.6387 152.053 50.3867 151.885 50.0664C151.721 49.7461 151.639 49.3359 151.639 48.8359C151.639 48.0547 151.904 47.459 152.436 47.0488C152.971 46.6387 153.766 46.4336 154.82 46.4336H157.17V55H156.174V51.4199H154.416ZM156.174 47.2832H154.855C154.383 47.2832 153.982 47.3379 153.654 47.4473C153.33 47.5566 153.084 47.7285 152.916 47.9629C152.748 48.1973 152.664 48.5039 152.664 48.8828C152.664 49.4258 152.844 49.8438 153.203 50.1367C153.562 50.4258 154.111 50.5703 154.85 50.5703H156.174V47.2832ZM160.352 48.5781V51.2734H163.932V48.5781H164.904V55H163.932V52.0996H160.352V55H159.373V48.5781H160.352ZM171.672 48.5781V54.1738H172.592V57.2207H171.648V55H167.102V57.2207H166.17V54.1738H166.674C167.041 53.666 167.346 53.1094 167.588 52.5039C167.83 51.8984 168.014 51.2637 168.139 50.5996C168.264 49.9316 168.33 49.2578 168.338 48.5781H171.672ZM170.729 49.3516H169.205C169.17 49.9219 169.086 50.502 168.953 51.0918C168.824 51.6816 168.652 52.2441 168.438 52.7793C168.223 53.3105 167.973 53.7754 167.688 54.1738H170.729V49.3516ZM176.342 48.4609C176.889 48.4609 177.357 48.582 177.748 48.8242C178.139 49.0664 178.438 49.4062 178.645 49.8438C178.852 50.2773 178.955 50.7852 178.955 51.3672V51.9707H174.52C174.531 52.7246 174.719 53.2988 175.082 53.6934C175.445 54.0879 175.957 54.2852 176.617 54.2852C177.023 54.2852 177.383 54.248 177.695 54.1738C178.008 54.0996 178.332 53.9902 178.668 53.8457V54.7012C178.344 54.8457 178.021 54.9512 177.701 55.0176C177.385 55.084 177.01 55.1172 176.576 55.1172C175.959 55.1172 175.42 54.9922 174.959 54.7422C174.502 54.4883 174.146 54.1172 173.893 53.6289C173.639 53.1406 173.512 52.543 173.512 51.8359C173.512 51.1445 173.627 50.5469 173.857 50.043C174.092 49.5352 174.42 49.1445 174.842 48.8711C175.268 48.5977 175.768 48.4609 176.342 48.4609ZM176.33 49.2578C175.811 49.2578 175.396 49.4277 175.088 49.7676C174.779 50.1074 174.596 50.582 174.537 51.1914H177.936C177.932 50.8086 177.871 50.4727 177.754 50.1836C177.641 49.8906 177.467 49.6641 177.232 49.5039C176.998 49.3398 176.697 49.2578 176.33 49.2578ZM184.352 48.5781H185.424L182.652 51.6777L185.646 55H184.504L181.586 51.7422V55H180.607V48.5781H181.586V51.6953L184.352 48.5781ZM189.379 55.1172C188.801 55.1172 188.291 54.998 187.85 54.7598C187.408 54.5215 187.064 54.1582 186.818 53.6699C186.572 53.1816 186.449 52.5664 186.449 51.8242C186.449 51.0469 186.578 50.4121 186.836 49.9199C187.098 49.4238 187.457 49.0566 187.914 48.8184C188.371 48.5801 188.891 48.4609 189.473 48.4609C189.793 48.4609 190.102 48.4941 190.398 48.5605C190.699 48.623 190.945 48.7031 191.137 48.8008L190.844 49.6152C190.648 49.5371 190.422 49.4668 190.164 49.4043C189.91 49.3418 189.672 49.3105 189.449 49.3105C189.004 49.3105 188.633 49.4062 188.336 49.5977C188.043 49.7891 187.822 50.0703 187.674 50.4414C187.529 50.8125 187.457 51.2695 187.457 51.8125C187.457 52.332 187.527 52.7754 187.668 53.1426C187.812 53.5098 188.025 53.791 188.307 53.9863C188.592 54.1777 188.947 54.2734 189.373 54.2734C189.713 54.2734 190.02 54.2383 190.293 54.168C190.566 54.0938 190.814 54.0078 191.037 53.9102V54.7773C190.822 54.8867 190.582 54.9707 190.316 55.0293C190.055 55.0879 189.742 55.1172 189.379 55.1172ZM195.033 48.4609C195.58 48.4609 196.049 48.582 196.439 48.8242C196.83 49.0664 197.129 49.4062 197.336 49.8438C197.543 50.2773 197.646 50.7852 197.646 51.3672V51.9707H193.211C193.223 52.7246 193.41 53.2988 193.773 53.6934C194.137 54.0879 194.648 54.2852 195.309 54.2852C195.715 54.2852 196.074 54.248 196.387 54.1738C196.699 54.0996 197.023 53.9902 197.359 53.8457V54.7012C197.035 54.8457 196.713 54.9512 196.393 55.0176C196.076 55.084 195.701 55.1172 195.268 55.1172C194.65 55.1172 194.111 54.9922 193.65 54.7422C193.193 54.4883 192.838 54.1172 192.584 53.6289C192.33 53.1406 192.203 52.543 192.203 51.8359C192.203 51.1445 192.318 50.5469 192.549 50.043C192.783 49.5352 193.111 49.1445 193.533 48.8711C193.959 48.5977 194.459 48.4609 195.033 48.4609ZM195.021 49.2578C194.502 49.2578 194.088 49.4277 193.779 49.7676C193.471 50.1074 193.287 50.582 193.229 51.1914H196.627C196.623 50.8086 196.562 50.4727 196.445 50.1836C196.332 49.8906 196.158 49.6641 195.924 49.5039C195.689 49.3398 195.389 49.2578 195.021 49.2578Z" fill="#140A32"/>
</svg>
