<svg width="88" height="87" viewBox="0 0 88 87" fill="none" xmlns="http://www.w3.org/2000/svg">
<rect x="0.333496" width="87" height="87" rx="43.5" fill="#33836E"/>
<path fill-rule="evenodd" clip-rule="evenodd" d="M39.5883 34.7491C40.5737 33.3805 42.2073 32.3334 44.6665 32.3334C47.1258 32.3334 48.7593 33.3805 49.7447 34.7491C50.6934 36.0667 50.9998 37.6178 50.9998 38.6667V43H51.8665C52.8606 43 53.6665 43.8059 53.6665 44.8V53.8667C53.6665 54.8608 52.8606 55.6667 51.8665 55.6667H37.4665C36.4724 55.6667 35.6665 54.8608 35.6665 53.8667V44.8C35.6665 43.8059 36.4724 43 37.4665 43H38.3332V38.6667C38.3332 37.6178 38.6396 36.0667 39.5883 34.7491ZM40.3332 43H48.9998V38.6667C48.9998 37.9378 48.773 36.8223 48.1216 35.9177C47.507 35.0641 46.4739 34.3334 44.6665 34.3334C42.8591 34.3334 41.826 35.0641 41.2114 35.9177C40.5601 36.8223 40.3332 37.9378 40.3332 38.6667V43ZM37.6665 45V53.6667H51.6665V45H37.6665Z" fill="white"/>
</svg>
