<svg width="87" height="87" viewBox="0 0 87 87" fill="none" xmlns="http://www.w3.org/2000/svg">
<rect width="87" height="87" rx="43.5" fill="#33836E"/>
<path fill-rule="evenodd" clip-rule="evenodd" d="M36.9743 41.7868C35.2912 43.0784 34.3333 44.7928 34.3333 46.6111C34.3333 48.6969 35.5998 50.6568 37.7715 51.9809C38.1607 52.2182 38.3402 52.6886 38.2079 53.1249L37.6394 55H39.6552L41.4613 53.6446C41.6344 53.5146 41.845 53.4444 42.0615 53.4444H45.3108C45.5272 53.4444 45.7379 53.5146 45.911 53.6446L47.7171 55H49.7329L49.1644 53.1249C49.0321 52.6886 49.2116 52.2182 49.6008 51.9809C50.8905 51.1946 51.8672 50.1758 52.442 49.0464C52.6925 48.5542 53.2946 48.3582 53.7868 48.6087C54.279 48.8592 54.475 49.4613 54.2245 49.9535C53.5668 51.2459 52.5492 52.3679 51.2949 53.2587L51.7251 54.6777C52.0756 55.8337 51.2105 57 50.0025 57H47.6504C47.2607 57 46.8816 56.8735 46.57 56.6396L44.9773 55.4444H42.395L40.8023 56.6396C40.4907 56.8735 40.1115 57 39.7219 57H37.3697C36.1618 57 35.2967 55.8337 35.6472 54.6777L36.0775 53.2585C33.8325 51.6629 32.3333 49.3135 32.3333 46.6111C32.3333 44.0417 33.6929 41.7839 35.7568 40.2002C37.8196 38.6172 40.6264 37.6666 43.6861 37.6666C44.9098 37.6666 46.3705 38.0483 47.3642 38.308C47.4404 38.3279 47.5138 38.347 47.5842 38.3653C48.1188 38.5039 48.4398 39.0496 48.3013 39.5842C48.1627 40.1189 47.6169 40.4399 47.0823 40.3013C47.0298 40.2877 46.9768 40.2739 46.9234 40.26C45.8646 39.9849 44.6398 39.6666 43.6861 39.6666C41.0281 39.6666 38.6585 40.4945 36.9743 41.7868Z" fill="white"/>
<path fill-rule="evenodd" clip-rule="evenodd" d="M53.9273 36.529C54.1892 36.7223 54.3405 37.0311 54.333 37.3565L54.2368 41.5119L56.3858 42.4108C56.7578 42.5664 56.9999 42.9302 56.9999 43.3334V48C56.9999 48.3733 56.792 48.7155 56.4608 48.8875L53.8929 50.2209C53.4027 50.4754 52.7991 50.2843 52.5446 49.7942C52.2901 49.3041 52.4811 48.7004 52.9713 48.4459L54.9999 47.3925V43.9991L52.8354 43.0937C52.4557 42.9348 52.212 42.5595 52.2216 42.148L52.3006 38.7317L47.6495 40.2821C47.1256 40.4567 46.5592 40.1736 46.3846 39.6496C46.2099 39.1257 46.4931 38.5593 47.0171 38.3847L53.0171 36.3847C53.3259 36.2818 53.6655 36.3356 53.9273 36.529Z" fill="white"/>
<path d="M48.6666 45.3333C48.2984 45.3333 47.9999 45.0349 47.9999 44.6667C47.9999 44.2985 48.2984 44 48.6666 44C49.0348 44 49.3333 44.2985 49.3333 44.6667C49.3333 45.0349 49.0348 45.3333 48.6666 45.3333Z" fill="white"/>
<path fill-rule="evenodd" clip-rule="evenodd" d="M48.6666 45C48.4825 45 48.3333 44.8508 48.3333 44.6667C48.3333 44.4826 48.4825 44.3333 48.6666 44.3333C48.8507 44.3333 48.9999 44.4826 48.9999 44.6667C48.9999 44.8508 48.8507 45 48.6666 45ZM50.3333 44.6667C50.3333 43.7462 49.5871 43 48.6666 43C47.7461 43 46.9999 43.7462 46.9999 44.6667C46.9999 45.5871 47.7461 46.3333 48.6666 46.3333C49.5871 46.3333 50.3333 45.5871 50.3333 44.6667Z" fill="white"/>
<path fill-rule="evenodd" clip-rule="evenodd" d="M31.6667 41.3292C31.6645 40.7788 31.2176 40.3334 30.6667 40.3334C30.1145 40.3334 29.6667 40.7811 29.6667 41.3334H30.6667C29.6667 41.3334 29.6667 41.3338 29.6667 41.3342L29.6667 41.3352L29.6668 41.3372L29.6668 41.3423L29.6669 41.356L29.6678 41.397C29.6687 41.4304 29.6704 41.4754 29.6737 41.5308C29.6801 41.6414 29.6927 41.7943 29.7172 41.978C29.7658 42.3425 29.8633 42.8434 30.0623 43.3807C30.4605 44.4556 31.3082 45.7698 33.0461 46.2912C33.5751 46.4499 34.1325 46.1497 34.2912 45.6207C34.4499 45.0917 34.1498 44.5342 33.6208 44.3755C32.6919 44.0969 32.2064 43.4111 31.9378 42.6861C31.8035 42.3233 31.7344 41.9742 31.6996 41.7137C31.6825 41.5849 31.6742 41.4816 31.6703 41.4141C31.6683 41.3804 31.6674 41.3559 31.667 41.342L31.6667 41.3292C31.6667 41.3292 31.6667 41.3292 31.6667 41.3292" fill="white"/>
<path fill-rule="evenodd" clip-rule="evenodd" d="M40.6667 33C38.6588 33 37 34.6629 37 36.753C37 37.7505 37.3788 38.6527 37.9951 39.3234L36.5224 40.6766C35.5772 39.648 35 38.2665 35 36.753C35 33.593 37.5199 31 40.6667 31C43.8135 31 46.3333 33.593 46.3333 36.753C46.3333 37.4214 46.2206 38.0654 46.0125 38.6651L44.1231 38.0094C44.2589 37.6181 44.3333 37.1956 44.3333 36.753C44.3333 34.6629 42.6745 33 40.6667 33Z" fill="white"/>
</svg>
