<svg width="212" height="44" viewBox="0 0 212 44" fill="none" xmlns="http://www.w3.org/2000/svg">
<path fill-rule="evenodd" clip-rule="evenodd" d="M12 12.75C7.99594 12.75 4.75 15.9959 4.75 20C4.75 20.9073 5.17155 22.0709 5.90354 23.371C6.6242 24.651 7.59493 25.9758 8.58078 27.1823C9.56431 28.386 10.5499 29.4563 11.2906 30.2264C11.5656 30.5124 11.8063 30.7564 12 30.9499C12.1937 30.7564 12.4344 30.5124 12.7094 30.2264C13.4501 29.4563 14.4357 28.386 15.4192 27.1823C16.4051 25.9758 17.3758 24.651 18.0965 23.371C18.8284 22.0709 19.25 20.9073 19.25 20C19.25 15.9959 16.0041 12.75 12 12.75ZM12 32C11.4841 32.5444 11.484 32.5443 11.4838 32.5441L11.477 32.5377L11.4586 32.5201L11.389 32.4532C11.3286 32.3948 11.2408 32.3093 11.1294 32.1993C10.9066 31.9794 10.5895 31.6614 10.2094 31.2662C9.45014 30.4767 8.43569 29.3754 7.41922 28.1314C6.40507 26.8902 5.3758 25.4911 4.59646 24.1069C3.82845 22.7428 3.25 21.3018 3.25 20C3.25 15.1675 7.16751 11.25 12 11.25C16.8325 11.25 20.75 15.1675 20.75 20C20.75 21.3018 20.1716 22.7428 19.4035 24.1069C18.6242 25.4911 17.5949 26.8902 16.5808 28.1314C15.5643 29.3754 14.5499 30.4767 13.7906 31.2662C13.4105 31.6614 13.0934 31.9794 12.8706 32.1993C12.7592 32.3093 12.6714 32.3948 12.611 32.4532L12.5414 32.5201L12.523 32.5377L12.518 32.5424L12.5166 32.5437C12.5164 32.5439 12.5159 32.5444 12 32ZM12 32L12.5166 32.5437L12 33.0333L11.4838 32.5441L12 32Z" fill="#33836E"/>
<path d="M12 21C12.5523 21 13 20.5523 13 20C13 19.4477 12.5523 19 12 19C11.4477 19 11 19.4477 11 20C11 20.5523 11.4477 21 12 21Z" fill="#33836E"/>
<path fill-rule="evenodd" clip-rule="evenodd" d="M12 19.75C11.8619 19.75 11.75 19.8619 11.75 20C11.75 20.1381 11.8619 20.25 12 20.25C12.1381 20.25 12.25 20.1381 12.25 20C12.25 19.8619 12.1381 19.75 12 19.75ZM10.25 20C10.25 19.0335 11.0335 18.25 12 18.25C12.9665 18.25 13.75 19.0335 13.75 20C13.75 20.9665 12.9665 21.75 12 21.75C11.0335 21.75 10.25 20.9665 10.25 20Z" fill="#33836E"/>
<path d="M40.5859 17L36.75 6.89062H36.6875C36.7083 7.10417 36.7266 7.36458 36.7422 7.67188C36.7578 7.97917 36.7708 8.3151 36.7812 8.67969C36.7917 9.03906 36.7969 9.40625 36.7969 9.78125V17H35.5625V5.57812H37.5312L41.1484 15.0781H41.2031L44.875 5.57812H46.8281V17H45.5156V9.6875C45.5156 9.34896 45.5208 9.01042 45.5312 8.67188C45.5417 8.32812 45.5547 8.00521 45.5703 7.70312C45.5859 7.39583 45.6016 7.13021 45.6172 6.90625H45.5547L41.6719 17H40.5859ZM57.1406 12.7031C57.1406 13.4062 57.0495 14.0339 56.8672 14.5859C56.6849 15.138 56.4219 15.6042 56.0781 15.9844C55.7344 16.3646 55.3177 16.6562 54.8281 16.8594C54.3438 17.0573 53.7943 17.1562 53.1797 17.1562C52.6068 17.1562 52.0807 17.0573 51.6016 16.8594C51.1276 16.6562 50.7161 16.3646 50.3672 15.9844C50.0234 15.6042 49.7552 15.138 49.5625 14.5859C49.375 14.0339 49.2812 13.4062 49.2812 12.7031C49.2812 11.7656 49.4401 10.9688 49.7578 10.3125C50.0755 9.65104 50.5286 9.14844 51.1172 8.80469C51.7109 8.45573 52.4167 8.28125 53.2344 8.28125C54.0156 8.28125 54.6979 8.45573 55.2812 8.80469C55.8698 9.15365 56.3255 9.65885 56.6484 10.3203C56.9766 10.9766 57.1406 11.7708 57.1406 12.7031ZM50.625 12.7031C50.625 13.3906 50.7161 13.987 50.8984 14.4922C51.0807 14.9974 51.362 15.388 51.7422 15.6641C52.1224 15.9401 52.612 16.0781 53.2109 16.0781C53.8047 16.0781 54.2917 15.9401 54.6719 15.6641C55.0573 15.388 55.3411 14.9974 55.5234 14.4922C55.7057 13.987 55.7969 13.3906 55.7969 12.7031C55.7969 12.0208 55.7057 11.4323 55.5234 10.9375C55.3411 10.4375 55.0599 10.0521 54.6797 9.78125C54.2995 9.51042 53.8073 9.375 53.2031 9.375C52.3125 9.375 51.6589 9.66927 51.2422 10.2578C50.8307 10.8464 50.625 11.6615 50.625 12.7031ZM62.8125 17.1562C62.0417 17.1562 61.362 16.9974 60.7734 16.6797C60.1849 16.362 59.7266 15.8776 59.3984 15.2266C59.0703 14.5755 58.9062 13.7552 58.9062 12.7656C58.9062 11.7292 59.0781 10.8828 59.4219 10.2266C59.7708 9.5651 60.25 9.07552 60.8594 8.75781C61.4688 8.4401 62.1615 8.28125 62.9375 8.28125C63.3646 8.28125 63.776 8.32552 64.1719 8.41406C64.5729 8.4974 64.901 8.60417 65.1562 8.73438L64.7656 9.82031C64.5052 9.71615 64.2031 9.6224 63.8594 9.53906C63.5208 9.45573 63.2031 9.41406 62.9062 9.41406C62.3125 9.41406 61.8177 9.54167 61.4219 9.79688C61.0312 10.0521 60.737 10.4271 60.5391 10.9219C60.3464 11.4167 60.25 12.026 60.25 12.75C60.25 13.4427 60.3438 14.0339 60.5312 14.5234C60.724 15.013 61.0078 15.388 61.3828 15.6484C61.763 15.9036 62.237 16.0312 62.8047 16.0312C63.2578 16.0312 63.6667 15.9844 64.0312 15.8906C64.3958 15.7917 64.7266 15.6771 65.0234 15.5469V16.7031C64.737 16.849 64.4167 16.9609 64.0625 17.0391C63.7135 17.1172 63.2969 17.1562 62.8125 17.1562ZM72.0469 8.4375H73.4766L69.7812 12.5703L73.7734 17H72.25L68.3594 12.6562V17H67.0547V8.4375H68.3594V12.5938L72.0469 8.4375ZM82.125 10.5859C82.125 11.1224 81.9688 11.5417 81.6562 11.8438C81.3438 12.1406 80.9401 12.3411 80.4453 12.4453V12.5078C80.9818 12.5807 81.4427 12.7734 81.8281 13.0859C82.2188 13.3932 82.4141 13.8646 82.4141 14.5C82.4141 14.9896 82.2969 15.4219 82.0625 15.7969C81.8281 16.1719 81.4609 16.4661 80.9609 16.6797C80.4609 16.8932 79.8099 17 79.0078 17H75.3203V8.4375H78.9766C79.5911 8.4375 80.1328 8.50781 80.6016 8.64844C81.0755 8.78385 81.4479 9.00781 81.7188 9.32031C81.9896 9.63281 82.125 10.0547 82.125 10.5859ZM81.0625 14.5C81.0625 13.9948 80.8698 13.6302 80.4844 13.4062C80.1042 13.1823 79.5495 13.0703 78.8203 13.0703H76.625V15.9453H78.8516C79.5703 15.9453 80.1172 15.8359 80.4922 15.6172C80.8724 15.3932 81.0625 15.0208 81.0625 14.5ZM80.8047 10.7344C80.8047 10.3281 80.6562 10.026 80.3594 9.82812C80.0625 9.625 79.5755 9.52344 78.8984 9.52344H76.625V11.9844H78.6719C79.375 11.9844 79.9062 11.8828 80.2656 11.6797C80.625 11.4766 80.8047 11.1615 80.8047 10.7344ZM87.7109 8.29688C88.7318 8.29688 89.4896 8.52604 89.9844 8.98438C90.4792 9.44271 90.7266 10.1745 90.7266 11.1797V17H89.7812L89.5312 15.7344H89.4688C89.2292 16.0469 88.9792 16.3099 88.7188 16.5234C88.4583 16.7318 88.1562 16.8906 87.8125 17C87.474 17.1042 87.0573 17.1562 86.5625 17.1562C86.0417 17.1562 85.5781 17.0651 85.1719 16.8828C84.7708 16.7005 84.4531 16.4245 84.2188 16.0547C83.9896 15.6849 83.875 15.2161 83.875 14.6484C83.875 13.7943 84.2135 13.138 84.8906 12.6797C85.5677 12.2214 86.599 11.9714 87.9844 11.9297L89.4609 11.8672V11.3438C89.4609 10.6042 89.3021 10.0859 88.9844 9.78906C88.6667 9.49219 88.2188 9.34375 87.6406 9.34375C87.1927 9.34375 86.7656 9.40885 86.3594 9.53906C85.9531 9.66927 85.5677 9.82292 85.2031 10L84.8047 9.01562C85.1901 8.81771 85.6328 8.64844 86.1328 8.50781C86.6328 8.36719 87.1589 8.29688 87.7109 8.29688ZM89.4453 12.7812L88.1406 12.8359C87.0729 12.8776 86.3203 13.0521 85.8828 13.3594C85.4453 13.6667 85.2266 14.1016 85.2266 14.6641C85.2266 15.1536 85.375 15.5156 85.6719 15.75C85.9688 15.9844 86.362 16.1016 86.8516 16.1016C87.612 16.1016 88.2344 15.8906 88.7188 15.4688C89.2031 15.0469 89.4453 14.4141 89.4453 13.5703V12.7812ZM94.8828 15.1406L94.9844 15.3203C94.8906 15.7005 94.7708 16.1068 94.625 16.5391C94.4844 16.9714 94.3281 17.4036 94.1562 17.8359C93.9896 18.2734 93.8203 18.6823 93.6484 19.0625H92.6797C92.7891 18.6458 92.8958 18.2057 93 17.7422C93.1042 17.2839 93.1979 16.8307 93.2812 16.3828C93.3698 15.9297 93.4401 15.5156 93.4922 15.1406H94.8828ZM115.258 17H101.891V5.57812H103.219V15.8125H107.898V5.57812H109.227V15.8125H113.914V5.57812H115.258V17ZM124.633 17H123.312V9.52344H120.711C120.607 10.8724 120.474 12.0286 120.312 12.9922C120.156 13.9505 119.958 14.7344 119.719 15.3438C119.484 15.9479 119.198 16.3932 118.859 16.6797C118.526 16.9609 118.128 17.1016 117.664 17.1016C117.523 17.1016 117.391 17.0938 117.266 17.0781C117.141 17.0625 117.034 17.0365 116.945 17V16.0156C117.013 16.0365 117.083 16.0521 117.156 16.0625C117.234 16.0729 117.315 16.0781 117.398 16.0781C117.633 16.0781 117.846 15.9818 118.039 15.7891C118.237 15.5911 118.414 15.2943 118.57 14.8984C118.732 14.5026 118.875 14.0026 119 13.3984C119.125 12.7891 119.234 12.0729 119.328 11.25C119.427 10.4219 119.513 9.48438 119.586 8.4375H124.633V17ZM138.375 12.7031C138.375 13.6354 138.224 14.4349 137.922 15.1016C137.625 15.7682 137.198 16.2786 136.641 16.6328C136.083 16.9818 135.417 17.1562 134.641 17.1562C133.917 17.1562 133.284 17 132.742 16.6875C132.206 16.375 131.781 15.9193 131.469 15.3203C131.161 14.7214 130.984 13.9922 130.938 13.1328H128.664V17H127.367V8.4375H128.664V12.0312H130.953C131.026 11.2396 131.219 10.5651 131.531 10.0078C131.844 9.45052 132.266 9.02344 132.797 8.72656C133.328 8.42969 133.953 8.28125 134.672 8.28125C135.422 8.28125 136.073 8.45833 136.625 8.8125C137.182 9.16146 137.612 9.66667 137.914 10.3281C138.221 10.9844 138.375 11.776 138.375 12.7031ZM132.266 12.7031C132.266 13.4219 132.346 14.0339 132.508 14.5391C132.674 15.0391 132.932 15.4219 133.281 15.6875C133.635 15.9479 134.094 16.0781 134.656 16.0781C135.214 16.0781 135.667 15.9479 136.016 15.6875C136.37 15.4271 136.628 15.0469 136.789 14.5469C136.956 14.0417 137.039 13.4271 137.039 12.7031C137.039 11.9896 136.956 11.3854 136.789 10.8906C136.622 10.3958 136.365 10.0208 136.016 9.76562C135.667 9.50521 135.214 9.375 134.656 9.375C134.099 9.375 133.643 9.50521 133.289 9.76562C132.94 10.0208 132.682 10.3958 132.516 10.8906C132.349 11.3854 132.266 11.9896 132.266 12.7031ZM142.836 8.28125C143.477 8.28125 144.031 8.36979 144.5 8.54688C144.969 8.71875 145.331 8.97135 145.586 9.30469C145.841 9.63802 145.969 10.0443 145.969 10.5234C145.969 11.0391 145.828 11.4505 145.547 11.7578C145.266 12.0651 144.878 12.2865 144.383 12.4219V12.4844C144.732 12.5781 145.047 12.7135 145.328 12.8906C145.615 13.0625 145.841 13.2917 146.008 13.5781C146.18 13.8594 146.266 14.2109 146.266 14.6328C146.266 15.112 146.135 15.5443 145.875 15.9297C145.615 16.3099 145.219 16.6094 144.688 16.8281C144.156 17.0469 143.484 17.1562 142.672 17.1562C142.271 17.1562 141.891 17.1328 141.531 17.0859C141.172 17.0443 140.846 16.9818 140.555 16.8984C140.263 16.8151 140.008 16.7161 139.789 16.6016V15.4219C140.154 15.599 140.581 15.7552 141.07 15.8906C141.56 16.026 142.089 16.0938 142.656 16.0938C143.094 16.0938 143.487 16.0443 143.836 15.9453C144.185 15.8411 144.461 15.6771 144.664 15.4531C144.872 15.224 144.977 14.9245 144.977 14.5547C144.977 14.2161 144.885 13.9375 144.703 13.7188C144.521 13.4948 144.247 13.3307 143.883 13.2266C143.523 13.1172 143.068 13.0625 142.516 13.0625H141.367V12H142.312C143.047 12 143.633 11.8958 144.07 11.6875C144.508 11.4792 144.727 11.1276 144.727 10.6328C144.727 10.2057 144.557 9.88802 144.219 9.67969C143.88 9.46615 143.396 9.35938 142.766 9.35938C142.297 9.35938 141.883 9.40885 141.523 9.50781C141.164 9.60156 140.776 9.73698 140.359 9.91406L139.898 8.875C140.346 8.67708 140.815 8.52865 141.305 8.42969C141.794 8.33073 142.305 8.28125 142.836 8.28125ZM155.75 12.7031C155.75 13.4062 155.659 14.0339 155.477 14.5859C155.294 15.138 155.031 15.6042 154.688 15.9844C154.344 16.3646 153.927 16.6562 153.438 16.8594C152.953 17.0573 152.404 17.1562 151.789 17.1562C151.216 17.1562 150.69 17.0573 150.211 16.8594C149.737 16.6562 149.326 16.3646 148.977 15.9844C148.633 15.6042 148.365 15.138 148.172 14.5859C147.984 14.0339 147.891 13.4062 147.891 12.7031C147.891 11.7656 148.049 10.9688 148.367 10.3125C148.685 9.65104 149.138 9.14844 149.727 8.80469C150.32 8.45573 151.026 8.28125 151.844 8.28125C152.625 8.28125 153.307 8.45573 153.891 8.80469C154.479 9.15365 154.935 9.65885 155.258 10.3203C155.586 10.9766 155.75 11.7708 155.75 12.7031ZM149.234 12.7031C149.234 13.3906 149.326 13.987 149.508 14.4922C149.69 14.9974 149.971 15.388 150.352 15.6641C150.732 15.9401 151.221 16.0781 151.82 16.0781C152.414 16.0781 152.901 15.9401 153.281 15.6641C153.667 15.388 153.951 14.9974 154.133 14.4922C154.315 13.987 154.406 13.3906 154.406 12.7031C154.406 12.0208 154.315 11.4323 154.133 10.9375C153.951 10.4375 153.669 10.0521 153.289 9.78125C152.909 9.51042 152.417 9.375 151.812 9.375C150.922 9.375 150.268 9.66927 149.852 10.2578C149.44 10.8464 149.234 11.6615 149.234 12.7031ZM164.797 10.5859C164.797 11.1224 164.641 11.5417 164.328 11.8438C164.016 12.1406 163.612 12.3411 163.117 12.4453V12.5078C163.654 12.5807 164.115 12.7734 164.5 13.0859C164.891 13.3932 165.086 13.8646 165.086 14.5C165.086 14.9896 164.969 15.4219 164.734 15.7969C164.5 16.1719 164.133 16.4661 163.633 16.6797C163.133 16.8932 162.482 17 161.68 17H157.992V8.4375H161.648C162.263 8.4375 162.805 8.50781 163.273 8.64844C163.747 8.78385 164.12 9.00781 164.391 9.32031C164.661 9.63281 164.797 10.0547 164.797 10.5859ZM163.734 14.5C163.734 13.9948 163.542 13.6302 163.156 13.4062C162.776 13.1823 162.221 13.0703 161.492 13.0703H159.297V15.9453H161.523C162.242 15.9453 162.789 15.8359 163.164 15.6172C163.544 15.3932 163.734 15.0208 163.734 14.5ZM163.477 10.7344C163.477 10.3281 163.328 10.026 163.031 9.82812C162.734 9.625 162.247 9.52344 161.57 9.52344H159.297V11.9844H161.344C162.047 11.9844 162.578 11.8828 162.938 11.6797C163.297 11.4766 163.477 11.1615 163.477 10.7344ZM170.383 8.29688C171.404 8.29688 172.161 8.52604 172.656 8.98438C173.151 9.44271 173.398 10.1745 173.398 11.1797V17H172.453L172.203 15.7344H172.141C171.901 16.0469 171.651 16.3099 171.391 16.5234C171.13 16.7318 170.828 16.8906 170.484 17C170.146 17.1042 169.729 17.1562 169.234 17.1562C168.714 17.1562 168.25 17.0651 167.844 16.8828C167.443 16.7005 167.125 16.4245 166.891 16.0547C166.661 15.6849 166.547 15.2161 166.547 14.6484C166.547 13.7943 166.885 13.138 167.562 12.6797C168.24 12.2214 169.271 11.9714 170.656 11.9297L172.133 11.8672V11.3438C172.133 10.6042 171.974 10.0859 171.656 9.78906C171.339 9.49219 170.891 9.34375 170.312 9.34375C169.865 9.34375 169.438 9.40885 169.031 9.53906C168.625 9.66927 168.24 9.82292 167.875 10L167.477 9.01562C167.862 8.81771 168.305 8.64844 168.805 8.50781C169.305 8.36719 169.831 8.29688 170.383 8.29688ZM172.117 12.7812L170.812 12.8359C169.745 12.8776 168.992 13.0521 168.555 13.3594C168.117 13.6667 167.898 14.1016 167.898 14.6641C167.898 15.1536 168.047 15.5156 168.344 15.75C168.641 15.9844 169.034 16.1016 169.523 16.1016C170.284 16.1016 170.906 15.8906 171.391 15.4688C171.875 15.0469 172.117 14.4141 172.117 13.5703V12.7812ZM176.484 17H174.969L177.438 13.3906C177.078 13.3125 176.745 13.1797 176.438 12.9922C176.13 12.7995 175.88 12.5365 175.688 12.2031C175.5 11.8698 175.406 11.4557 175.406 10.9609C175.406 10.138 175.68 9.51302 176.227 9.08594C176.779 8.65365 177.505 8.4375 178.406 8.4375H182.195V17H180.898V13.5625H178.727L176.484 17ZM176.664 10.9688C176.664 11.4792 176.846 11.8594 177.211 12.1094C177.576 12.3542 178.096 12.4766 178.773 12.4766H180.898V9.52344H178.547C177.88 9.52344 177.398 9.65885 177.102 9.92969C176.81 10.1953 176.664 10.5417 176.664 10.9688ZM36.6719 30.4375V34.0312H41.4453V30.4375H42.7422V39H41.4453V35.1328H36.6719V39H35.3672V30.4375H36.6719ZM48.6953 30.2969C49.7161 30.2969 50.474 30.526 50.9688 30.9844C51.4635 31.4427 51.7109 32.1745 51.7109 33.1797V39H50.7656L50.5156 37.7344H50.4531C50.2135 38.0469 49.9635 38.3099 49.7031 38.5234C49.4427 38.7318 49.1406 38.8906 48.7969 39C48.4583 39.1042 48.0417 39.1562 47.5469 39.1562C47.026 39.1562 46.5625 39.0651 46.1562 38.8828C45.7552 38.7005 45.4375 38.4245 45.2031 38.0547C44.974 37.6849 44.8594 37.2161 44.8594 36.6484C44.8594 35.7943 45.1979 35.138 45.875 34.6797C46.5521 34.2214 47.5833 33.9714 48.9688 33.9297L50.4453 33.8672V33.3438C50.4453 32.6042 50.2865 32.0859 49.9688 31.7891C49.651 31.4922 49.2031 31.3438 48.625 31.3438C48.1771 31.3438 47.75 31.4089 47.3438 31.5391C46.9375 31.6693 46.5521 31.8229 46.1875 32L45.7891 31.0156C46.1745 30.8177 46.6172 30.6484 47.1172 30.5078C47.6172 30.3672 48.1432 30.2969 48.6953 30.2969ZM50.4297 34.7812L49.125 34.8359C48.0573 34.8776 47.3047 35.0521 46.8672 35.3594C46.4297 35.6667 46.2109 36.1016 46.2109 36.6641C46.2109 37.1536 46.3594 37.5156 46.6562 37.75C46.9531 37.9844 47.3464 38.1016 47.8359 38.1016C48.5964 38.1016 49.2188 37.8906 49.7031 37.4688C50.1875 37.0469 50.4297 36.4141 50.4297 35.5703V34.7812ZM53.9375 33.8594C53.9375 32.6406 54.0547 31.6016 54.2891 30.7422C54.5234 29.8776 54.8854 29.1849 55.375 28.6641C55.8698 28.138 56.5052 27.7786 57.2812 27.5859C57.9479 27.4036 58.625 27.2474 59.3125 27.1172C60 26.9818 60.6693 26.8646 61.3203 26.7656L61.5469 27.9062C61.2188 27.9531 60.875 28.0078 60.5156 28.0703C60.1562 28.1276 59.7969 28.1901 59.4375 28.2578C59.0781 28.3203 58.7396 28.388 58.4219 28.4609C58.1042 28.5286 57.8229 28.599 57.5781 28.6719C57.1354 28.7917 56.7526 29 56.4297 29.2969C56.112 29.5938 55.8594 30.0026 55.6719 30.5234C55.4896 31.0443 55.3802 31.7005 55.3438 32.4922H55.4375C55.5938 32.263 55.8073 32.0365 56.0781 31.8125C56.349 31.5885 56.6719 31.4036 57.0469 31.2578C57.4219 31.1068 57.8438 31.0312 58.3125 31.0312C59.0521 31.0312 59.6693 31.1927 60.1641 31.5156C60.6589 31.8333 61.0312 32.2812 61.2812 32.8594C61.5312 33.4375 61.6562 34.1146 61.6562 34.8906C61.6562 35.8229 61.4948 36.6068 61.1719 37.2422C60.8542 37.8776 60.4062 38.3568 59.8281 38.6797C59.25 38.9974 58.5703 39.1562 57.7891 39.1562C57.1849 39.1562 56.6432 39.0391 56.1641 38.8047C55.6901 38.5703 55.2865 38.2266 54.9531 37.7734C54.625 37.3203 54.3724 36.7656 54.1953 36.1094C54.0234 35.4531 53.9375 34.7031 53.9375 33.8594ZM57.8906 38.0781C58.3854 38.0781 58.8099 37.974 59.1641 37.7656C59.5234 37.5573 59.7995 37.2292 59.9922 36.7812C60.1901 36.3281 60.2891 35.7396 60.2891 35.0156C60.2891 34.1094 60.1146 33.401 59.7656 32.8906C59.4219 32.375 58.8698 32.1172 58.1094 32.1172C57.6354 32.1172 57.2057 32.2188 56.8203 32.4219C56.4349 32.6198 56.1094 32.8568 55.8438 33.1328C55.5781 33.4089 55.3854 33.6562 55.2656 33.875C55.2656 34.4062 55.3047 34.9219 55.3828 35.4219C55.4609 35.9219 55.5964 36.3724 55.7891 36.7734C55.9818 37.1745 56.2474 37.4922 56.5859 37.7266C56.9297 37.9609 57.3646 38.0781 57.8906 38.0781ZM67.1953 30.2812C67.9245 30.2812 68.5495 30.4427 69.0703 30.7656C69.5911 31.0885 69.9896 31.5417 70.2656 32.125C70.5417 32.7031 70.6797 33.3802 70.6797 34.1562V34.9609H64.7656C64.7812 35.9661 65.0312 36.7318 65.5156 37.2578C66 37.7839 66.6823 38.0469 67.5625 38.0469C68.1042 38.0469 68.5833 37.9974 69 37.8984C69.4167 37.7995 69.849 37.6536 70.2969 37.4609V38.6016C69.8646 38.7943 69.4349 38.9349 69.0078 39.0234C68.5859 39.112 68.0859 39.1562 67.5078 39.1562C66.6849 39.1562 65.9661 38.9896 65.3516 38.6562C64.7422 38.3177 64.2682 37.8229 63.9297 37.1719C63.5911 36.5208 63.4219 35.724 63.4219 34.7812C63.4219 33.8594 63.5755 33.0625 63.8828 32.3906C64.1953 31.7135 64.6328 31.1927 65.1953 30.8281C65.763 30.4635 66.4297 30.2812 67.1953 30.2812ZM67.1797 31.3438C66.487 31.3438 65.9349 31.5703 65.5234 32.0234C65.112 32.4766 64.8672 33.1094 64.7891 33.9219H69.3203C69.3151 33.4115 69.2344 32.9635 69.0781 32.5781C68.9271 32.1875 68.6953 31.8854 68.3828 31.6719C68.0703 31.4531 67.6693 31.3438 67.1797 31.3438ZM76.9062 30.2812C77.974 30.2812 78.8255 30.6484 79.4609 31.3828C80.0964 32.1172 80.4141 33.2214 80.4141 34.6953C80.4141 35.6693 80.2682 36.487 79.9766 37.1484C79.6849 37.8099 79.2734 38.3099 78.7422 38.6484C78.2161 38.987 77.5938 39.1562 76.875 39.1562C76.4219 39.1562 76.0234 39.0964 75.6797 38.9766C75.3359 38.8568 75.0417 38.6953 74.7969 38.4922C74.5521 38.2891 74.349 38.0677 74.1875 37.8281H74.0938C74.1094 38.0312 74.1276 38.276 74.1484 38.5625C74.1745 38.849 74.1875 39.099 74.1875 39.3125V42.8281H72.8828V30.4375H73.9531L74.125 31.7031H74.1875C74.3542 31.4427 74.5573 31.2057 74.7969 30.9922C75.0365 30.7734 75.3281 30.6016 75.6719 30.4766C76.0208 30.3464 76.4323 30.2812 76.9062 30.2812ZM76.6797 31.375C76.0859 31.375 75.6068 31.4896 75.2422 31.7188C74.8828 31.9479 74.6198 32.2917 74.4531 32.75C74.2865 33.2031 74.1979 33.7734 74.1875 34.4609V34.7109C74.1875 35.4349 74.2656 36.0469 74.4219 36.5469C74.5833 37.0469 74.8464 37.4271 75.2109 37.6875C75.5807 37.9479 76.0755 38.0781 76.6953 38.0781C77.2266 38.0781 77.6693 37.9349 78.0234 37.6484C78.3776 37.362 78.6406 36.9635 78.8125 36.4531C78.9896 35.9375 79.0781 35.3464 79.0781 34.6797C79.0781 33.6693 78.8802 32.8672 78.4844 32.2734C78.0938 31.6745 77.4922 31.375 76.6797 31.375ZM85.9766 30.2812C86.7057 30.2812 87.3307 30.4427 87.8516 30.7656C88.3724 31.0885 88.7708 31.5417 89.0469 32.125C89.3229 32.7031 89.4609 33.3802 89.4609 34.1562V34.9609H83.5469C83.5625 35.9661 83.8125 36.7318 84.2969 37.2578C84.7812 37.7839 85.4635 38.0469 86.3438 38.0469C86.8854 38.0469 87.3646 37.9974 87.7812 37.8984C88.1979 37.7995 88.6302 37.6536 89.0781 37.4609V38.6016C88.6458 38.7943 88.2161 38.9349 87.7891 39.0234C87.3672 39.112 86.8672 39.1562 86.2891 39.1562C85.4661 39.1562 84.7474 38.9896 84.1328 38.6562C83.5234 38.3177 83.0495 37.8229 82.7109 37.1719C82.3724 36.5208 82.2031 35.724 82.2031 34.7812C82.2031 33.8594 82.3568 33.0625 82.6641 32.3906C82.9766 31.7135 83.4141 31.1927 83.9766 30.8281C84.5443 30.4635 85.2109 30.2812 85.9766 30.2812ZM85.9609 31.3438C85.2682 31.3438 84.7161 31.5703 84.3047 32.0234C83.8932 32.4766 83.6484 33.1094 83.5703 33.9219H88.1016C88.0964 33.4115 88.0156 32.9635 87.8594 32.5781C87.7083 32.1875 87.4766 31.8854 87.1641 31.6719C86.8516 31.4531 86.4505 31.3438 85.9609 31.3438ZM101.695 30.4375L98.1328 34.6016L102 39H100.516L96.7656 34.6562V39H95.5547V34.6562L91.8125 39H90.3281L94.1953 34.6016L90.625 30.4375H92.0547L95.5547 34.5938V30.4375H96.7656V34.5938L100.281 30.4375H101.695ZM104.734 30.4375V34.0312H109.508V30.4375H110.805V39H109.508V35.1328H104.734V39H103.43V30.4375H104.734ZM116.758 30.2969C117.779 30.2969 118.536 30.526 119.031 30.9844C119.526 31.4427 119.773 32.1745 119.773 33.1797V39H118.828L118.578 37.7344H118.516C118.276 38.0469 118.026 38.3099 117.766 38.5234C117.505 38.7318 117.203 38.8906 116.859 39C116.521 39.1042 116.104 39.1562 115.609 39.1562C115.089 39.1562 114.625 39.0651 114.219 38.8828C113.818 38.7005 113.5 38.4245 113.266 38.0547C113.036 37.6849 112.922 37.2161 112.922 36.6484C112.922 35.7943 113.26 35.138 113.938 34.6797C114.615 34.2214 115.646 33.9714 117.031 33.9297L118.508 33.8672V33.3438C118.508 32.6042 118.349 32.0859 118.031 31.7891C117.714 31.4922 117.266 31.3438 116.688 31.3438C116.24 31.3438 115.812 31.4089 115.406 31.5391C115 31.6693 114.615 31.8229 114.25 32L113.852 31.0156C114.237 30.8177 114.68 30.6484 115.18 30.5078C115.68 30.3672 116.206 30.2969 116.758 30.2969ZM118.492 34.7812L117.188 34.8359C116.12 34.8776 115.367 35.0521 114.93 35.3594C114.492 35.6667 114.273 36.1016 114.273 36.6641C114.273 37.1536 114.422 37.5156 114.719 37.75C115.016 37.9844 115.409 38.1016 115.898 38.1016C116.659 38.1016 117.281 37.8906 117.766 37.4688C118.25 37.0469 118.492 36.4141 118.492 35.5703V34.7812ZM122.859 39H121.344L123.812 35.3906C123.453 35.3125 123.12 35.1797 122.812 34.9922C122.505 34.7995 122.255 34.5365 122.062 34.2031C121.875 33.8698 121.781 33.4557 121.781 32.9609C121.781 32.138 122.055 31.513 122.602 31.0859C123.154 30.6536 123.88 30.4375 124.781 30.4375H128.57V39H127.273V35.5625H125.102L122.859 39ZM123.039 32.9688C123.039 33.4792 123.221 33.8594 123.586 34.1094C123.951 34.3542 124.471 34.4766 125.148 34.4766H127.273V31.5234H124.922C124.255 31.5234 123.773 31.6589 123.477 31.9297C123.185 32.1953 123.039 32.5417 123.039 32.9688ZM141.734 30.4375V37.8984H142.961V41.9609H141.703V39H135.641V41.9609H134.398V37.8984H135.07C135.56 37.2214 135.966 36.4792 136.289 35.6719C136.612 34.8646 136.857 34.0182 137.023 33.1328C137.19 32.2422 137.279 31.3438 137.289 30.4375H141.734ZM140.477 31.4688H138.445C138.398 32.2292 138.286 33.0026 138.109 33.7891C137.938 34.5755 137.708 35.3255 137.422 36.0391C137.135 36.7474 136.802 37.3672 136.422 37.8984H140.477V31.4688ZM144.469 38.1875C144.469 37.8229 144.557 37.5651 144.734 37.4141C144.911 37.2578 145.128 37.1797 145.383 37.1797C145.648 37.1797 145.872 37.2578 146.055 37.4141C146.237 37.5651 146.328 37.8229 146.328 38.1875C146.328 38.5469 146.237 38.8099 146.055 38.9766C145.872 39.138 145.648 39.2188 145.383 39.2188C145.128 39.2188 144.911 39.138 144.734 38.9766C144.557 38.8099 144.469 38.5469 144.469 38.1875ZM152.562 34.1172C152.562 33.4297 152.609 32.7578 152.703 32.1016C152.802 31.4453 152.966 30.8359 153.195 30.2734C153.424 29.7057 153.737 29.2083 154.133 28.7812C154.529 28.3542 155.021 28.0208 155.609 27.7812C156.203 27.5365 156.914 27.4141 157.742 27.4141C157.977 27.4141 158.229 27.4271 158.5 27.4531C158.771 27.474 158.995 27.5104 159.172 27.5625V28.6797C158.979 28.612 158.758 28.5625 158.508 28.5312C158.263 28.5 158.016 28.4844 157.766 28.4844C156.797 28.4844 156.034 28.6953 155.477 29.1172C154.924 29.5391 154.526 30.112 154.281 30.8359C154.036 31.5547 153.896 32.3646 153.859 33.2656H153.945C154.107 33.0052 154.312 32.7708 154.562 32.5625C154.812 32.349 155.115 32.1797 155.469 32.0547C155.828 31.9297 156.245 31.8672 156.719 31.8672C157.385 31.8672 157.966 32.0026 158.461 32.2734C158.961 32.5443 159.346 32.9375 159.617 33.4531C159.893 33.9688 160.031 34.5938 160.031 35.3281C160.031 36.1146 159.885 36.7943 159.594 37.3672C159.302 37.9401 158.885 38.3828 158.344 38.6953C157.807 39.0026 157.167 39.1562 156.422 39.1562C155.865 39.1562 155.352 39.0495 154.883 38.8359C154.414 38.6224 154.005 38.3047 153.656 37.8828C153.312 37.4609 153.044 36.9375 152.852 36.3125C152.659 35.6823 152.562 34.9505 152.562 34.1172ZM156.406 38.0625C157.115 38.0625 157.682 37.8359 158.109 37.3828C158.536 36.9297 158.75 36.2448 158.75 35.3281C158.75 34.5781 158.56 33.9844 158.18 33.5469C157.799 33.1094 157.227 32.8906 156.461 32.8906C155.94 32.8906 155.487 33 155.102 33.2188C154.716 33.4323 154.417 33.7031 154.203 34.0312C153.99 34.3594 153.883 34.6927 153.883 35.0312C153.883 35.375 153.932 35.724 154.031 36.0781C154.135 36.4323 154.292 36.7604 154.5 37.0625C154.708 37.3646 154.971 37.6068 155.289 37.7891C155.607 37.9714 155.979 38.0625 156.406 38.0625ZM169.766 39.1562C168.995 39.1562 168.315 38.9974 167.727 38.6797C167.138 38.362 166.68 37.8776 166.352 37.2266C166.023 36.5755 165.859 35.7552 165.859 34.7656C165.859 33.7292 166.031 32.8828 166.375 32.2266C166.724 31.5651 167.203 31.0755 167.812 30.7578C168.422 30.4401 169.115 30.2812 169.891 30.2812C170.318 30.2812 170.729 30.3255 171.125 30.4141C171.526 30.4974 171.854 30.6042 172.109 30.7344L171.719 31.8203C171.458 31.7161 171.156 31.6224 170.812 31.5391C170.474 31.4557 170.156 31.4141 169.859 31.4141C169.266 31.4141 168.771 31.5417 168.375 31.7969C167.984 32.0521 167.69 32.4271 167.492 32.9219C167.299 33.4167 167.203 34.026 167.203 34.75C167.203 35.4427 167.297 36.0339 167.484 36.5234C167.677 37.013 167.961 37.388 168.336 37.6484C168.716 37.9036 169.19 38.0312 169.758 38.0312C170.211 38.0312 170.62 37.9844 170.984 37.8906C171.349 37.7917 171.68 37.6771 171.977 37.5469V38.7031C171.69 38.849 171.37 38.9609 171.016 39.0391C170.667 39.1172 170.25 39.1562 169.766 39.1562ZM179.844 31.5391H177.023V39H175.742V31.5391H172.961V30.4375H179.844V31.5391ZM185.562 30.2812C186.63 30.2812 187.482 30.6484 188.117 31.3828C188.753 32.1172 189.07 33.2214 189.07 34.6953C189.07 35.6693 188.924 36.487 188.633 37.1484C188.341 37.8099 187.93 38.3099 187.398 38.6484C186.872 38.987 186.25 39.1562 185.531 39.1562C185.078 39.1562 184.68 39.0964 184.336 38.9766C183.992 38.8568 183.698 38.6953 183.453 38.4922C183.208 38.2891 183.005 38.0677 182.844 37.8281H182.75C182.766 38.0312 182.784 38.276 182.805 38.5625C182.831 38.849 182.844 39.099 182.844 39.3125V42.8281H181.539V30.4375H182.609L182.781 31.7031H182.844C183.01 31.4427 183.214 31.2057 183.453 30.9922C183.693 30.7734 183.984 30.6016 184.328 30.4766C184.677 30.3464 185.089 30.2812 185.562 30.2812ZM185.336 31.375C184.742 31.375 184.263 31.4896 183.898 31.7188C183.539 31.9479 183.276 32.2917 183.109 32.75C182.943 33.2031 182.854 33.7734 182.844 34.4609V34.7109C182.844 35.4349 182.922 36.0469 183.078 36.5469C183.24 37.0469 183.503 37.4271 183.867 37.6875C184.237 37.9479 184.732 38.0781 185.352 38.0781C185.883 38.0781 186.326 37.9349 186.68 37.6484C187.034 37.362 187.297 36.9635 187.469 36.4531C187.646 35.9375 187.734 35.3464 187.734 34.6797C187.734 33.6693 187.536 32.8672 187.141 32.2734C186.75 31.6745 186.148 31.375 185.336 31.375ZM191.141 38.1875C191.141 37.8229 191.229 37.5651 191.406 37.4141C191.583 37.2578 191.799 37.1797 192.055 37.1797C192.32 37.1797 192.544 37.2578 192.727 37.4141C192.909 37.5651 193 37.8229 193 38.1875C193 38.5469 192.909 38.8099 192.727 38.9766C192.544 39.138 192.32 39.2188 192.055 39.2188C191.799 39.2188 191.583 39.138 191.406 38.9766C191.229 38.8099 191.141 38.5469 191.141 38.1875ZM207.172 36.3516H205.461V39H204.195V36.3516H198.672V35.2578L204.109 27.5156H205.461V35.1797H207.172V36.3516ZM204.195 35.1797V31.4453C204.195 31.1589 204.198 30.901 204.203 30.6719C204.208 30.4375 204.216 30.2214 204.227 30.0234C204.237 29.8203 204.245 29.6276 204.25 29.4453C204.26 29.263 204.268 29.0833 204.273 28.9062H204.211C204.112 29.1146 203.997 29.3359 203.867 29.5703C203.742 29.7995 203.615 30.0052 203.484 30.1875L199.961 35.1797H204.195Z" fill="black"/>
</svg>
