<svg width="88" height="87" viewBox="0 0 88 87" fill="none" xmlns="http://www.w3.org/2000/svg">
<rect x="0.666748" width="87" height="87" rx="43.5" fill="#33836E"/>
<path fill-rule="evenodd" clip-rule="evenodd" d="M52.1481 32.6501C51.9591 32.448 51.6947 32.3334 51.418 32.3334H37.3274C37.0507 32.3334 36.7864 32.448 36.5973 32.6501C36.4082 32.8522 36.3113 33.1235 36.3296 33.3997L37.3274 33.3334C36.3296 33.3997 36.3296 33.3995 36.3296 33.3997L36.33 33.4044L36.3307 33.4157L36.3337 33.4581C36.3364 33.495 36.3404 33.5488 36.3458 33.6184C36.3566 33.7577 36.3732 33.9603 36.3965 34.217C36.4431 34.7301 36.5165 35.4603 36.6243 36.333C36.8394 38.0751 37.1933 40.4011 37.7481 42.7099C38.2746 44.9005 38.9977 47.1443 39.995 48.863C40.9701 50.5433 42.3842 52.0096 44.3727 52.0096C46.4074 52.0096 47.8406 50.476 48.8212 48.7393C49.8268 46.9583 50.5498 44.6395 51.071 42.3979C51.5956 40.1415 51.9311 37.8939 52.1354 36.2162C52.2378 35.3758 52.3076 34.6748 52.352 34.1827C52.3742 33.9366 52.39 33.7425 52.4004 33.6092C52.4055 33.5425 52.4093 33.491 52.4119 33.4557L52.4147 33.4151L52.4155 33.4042L52.4157 33.4011C52.4157 33.4008 52.4158 33.3997 51.418 33.3334L52.4158 33.3997C52.4341 33.1235 52.3372 32.8522 52.1481 32.6501ZM50.3293 34.3334C50.287 34.7733 50.2284 35.3315 50.1501 35.9744C49.9508 37.6109 49.6258 39.7824 49.123 41.945C48.6167 44.1224 47.9453 46.2228 47.0796 47.756C46.1888 49.3336 45.2735 50.0096 44.3727 50.0096C43.4932 50.0096 42.5997 49.3668 41.7249 47.8592C40.8723 46.39 40.2033 44.3671 39.6928 42.2426C39.1618 40.0331 38.8192 37.7877 38.6092 36.0879C38.5239 35.3971 38.4608 34.799 38.4161 34.3334H50.3293Z" fill="white"/>
<path fill-rule="evenodd" clip-rule="evenodd" d="M56.3054 31.939C55.7621 31.4012 54.904 30.9717 53.6443 31.0002C52.7889 31.0196 52.0029 31.5383 51.5544 31.8793C51.3023 32.0709 51.09 32.2595 50.941 32.3995C50.8659 32.47 50.8055 32.5296 50.7627 32.5728C50.7412 32.5944 50.7241 32.612 50.7116 32.625L50.6964 32.6409L50.6915 32.6461L50.6897 32.648L50.6886 32.6491C50.6885 32.6493 50.6884 32.6494 51.3897 33.3069L50.6886 32.6491C50.3109 33.052 50.3311 33.6852 50.734 34.0629C51.1368 34.4405 51.7694 34.4202 52.1471 34.0176L52.1523 34.0122L52.1827 33.9812C52.211 33.9526 52.2545 33.9096 52.3106 33.857C52.4238 33.7506 52.5823 33.6102 52.7649 33.4714C53.1857 33.1515 53.5242 33.0035 53.6896 32.9997C54.4299 32.983 54.7568 33.2202 54.8983 33.3603C54.9811 33.4423 55.0309 33.5223 55.0579 33.5749C55.0697 33.5979 55.0764 33.6143 55.0791 33.6212C55.0941 33.6713 55.1131 33.7201 55.1358 33.7672C55.372 34.2578 55.6911 35.9078 54.1423 37.5158C52.3072 39.4209 50.2512 41.0873 49.4447 41.6617C48.9949 41.9821 48.89 42.6065 49.2104 43.0563C49.5308 43.5062 50.1552 43.6111 50.605 43.2907C51.5101 42.646 53.6603 40.8991 55.5827 38.9033C57.7488 36.6545 57.4951 34.1335 56.969 32.9666C56.9645 32.9536 56.9595 32.9397 56.954 32.925C56.9278 32.8547 56.8901 32.7649 56.8375 32.6623C56.7327 32.4578 56.565 32.196 56.3054 31.939Z" fill="white"/>
<path fill-rule="evenodd" clip-rule="evenodd" d="M33.765 33.3754C33.9097 33.2337 34.244 32.9941 34.9925 33C35.1711 33.0014 35.5264 33.1527 35.9632 33.4747C36.1535 33.615 36.3189 33.7572 36.4371 33.865C36.4957 33.9184 36.5412 33.962 36.5709 33.9911C36.5857 34.0055 36.5964 34.0163 36.6027 34.0227L36.608 34.028C36.9917 34.425 37.6248 34.4362 38.022 34.0527C38.4193 33.669 38.4303 33.0359 38.0467 32.6387L37.3274 33.3333C38.0467 32.6387 38.0468 32.6388 38.0467 32.6387L38.0453 32.6373L38.0435 32.6354L38.0384 32.6302L38.0227 32.6142C38.0098 32.6012 37.992 32.5835 37.9698 32.5617C37.9254 32.5183 37.8627 32.4583 37.7849 32.3873C37.6304 32.2464 37.4105 32.0568 37.1499 31.8648C36.6851 31.5222 35.8768 31.0068 35.0081 31C33.7566 30.9903 32.906 31.4174 32.3658 31.9463C32.1068 32.1998 31.9388 32.4576 31.8331 32.6599C31.7802 32.7613 31.7421 32.8502 31.7156 32.9199C31.7097 32.9355 31.7043 32.9502 31.6994 32.964C31.1725 34.1296 30.9167 36.6527 33.0845 38.9033C35.0164 40.909 37.2479 42.6552 38.1402 43.2907C38.5901 43.6111 39.2145 43.5062 39.5349 43.0564C39.8553 42.6065 39.7504 41.9821 39.3005 41.6617C38.4813 41.0782 36.3505 39.4111 34.5249 37.5158C32.9761 35.9078 33.2952 34.2578 33.5315 33.7673C33.5531 33.7223 33.5714 33.6758 33.5861 33.6281C33.5887 33.6215 33.595 33.6066 33.6059 33.5857C33.6321 33.5356 33.6815 33.4571 33.765 33.3754ZM36.6093 34.0294C36.6094 34.0294 36.6094 34.0294 36.6093 34.0294V34.0294Z" fill="white"/>
<path fill-rule="evenodd" clip-rule="evenodd" d="M44.1215 50.0416L44.3727 51.0095L44.624 50.0416C44.4592 49.9988 44.2863 49.9988 44.1215 50.0416ZM44.3727 52.0503C44.4811 52.0834 44.6196 52.1277 44.7796 52.1831C45.191 52.3255 45.7299 52.5359 46.2604 52.8114C46.7503 53.0656 47.193 53.3549 47.521 53.6667H41.2245C41.5525 53.3549 41.9952 53.0656 42.485 52.8114C43.0156 52.5359 43.5545 52.3255 43.9659 52.1831C44.1259 52.1277 44.2644 52.0834 44.3727 52.0503ZM44.624 50.0416C44.6237 50.0415 44.624 50.0416 44.3727 51.0095C44.1215 50.0416 44.1218 50.0415 44.1215 50.0416L44.1188 50.0423L44.1144 50.0435L44.1005 50.0472L44.0532 50.0601C44.0133 50.0711 43.957 50.0871 43.8865 50.108C43.7459 50.1497 43.548 50.2113 43.3118 50.2931C42.8426 50.4555 42.2073 50.7021 41.5636 51.0363C40.928 51.3662 40.2353 51.8063 39.6895 52.3729C39.1403 52.9431 38.6759 53.712 38.6759 54.6667C38.6759 55.219 39.1236 55.6667 39.6759 55.6667H49.0696C49.6219 55.6667 50.0696 55.219 50.0696 54.6667C50.0696 53.712 49.6052 52.9431 49.0559 52.3729C48.5101 51.8063 47.8175 51.3662 47.1819 51.0363C46.5382 50.7021 45.9029 50.4555 45.4337 50.2931C45.1975 50.2113 44.9996 50.1497 44.8589 50.108C44.7885 50.0871 44.7322 50.0711 44.6923 50.0601L44.645 50.0472L44.6311 50.0435L44.6267 50.0423L44.624 50.0416Z" fill="white"/>
</svg>
