<svg width="156" height="24" viewBox="0 0 156 24" fill="none" xmlns="http://www.w3.org/2000/svg">
<path d="M21.2044 7.38372C20.983 6.56132 20.3346 5.91289 19.5122 5.69147C18.0097 5.28027 11.9999 5.28027 11.9999 5.28027C11.9999 5.28027 5.99 5.28027 4.48754 5.67566C3.68095 5.89707 3.0167 6.56132 2.79529 7.38372C2.3999 8.88619 2.3999 12.0018 2.3999 12.0018C2.3999 12.0018 2.3999 15.1333 2.79529 16.6199C3.0167 17.4423 3.66514 18.0908 4.48754 18.3122C6.00582 18.7234 11.9999 18.7234 11.9999 18.7234C11.9999 18.7234 18.0097 18.7234 19.5122 18.328C20.3346 18.1066 20.983 17.4581 21.2044 16.6357C21.5998 15.1333 21.5998 12.0176 21.5998 12.0176C21.5998 12.0176 21.6156 8.88619 21.2044 7.38372Z" fill="#33836E"/>
<path d="M10.0864 14.8799L15.0841 12.0015L10.0864 9.12305V14.8799Z" fill="white"/>
<path d="M56.8038 18C50.6539 18 47.1462 13.8709 47 7H50.0806C50.1818 12.043 52.4528 14.1792 54.2517 14.6196V7H57.1525V11.3493C58.9289 11.1622 60.795 9.18018 61.4246 7H64.3253C63.8419 9.68669 61.8181 11.6687 60.379 12.4835C61.8181 13.1441 64.123 14.8729 65 18H61.8069C61.1211 15.9079 59.4123 14.2893 57.1525 14.0691V18H56.8038Z" fill="#33836E"/>
<path d="M100.16 2.40039C97.3297 2.40039 95.0271 4.62319 95.0271 7.3558C95.0271 10.0882 97.3297 12.31 100.16 12.31C102.991 12.31 105.292 10.0882 105.292 7.3558C105.292 4.62319 102.991 2.40039 100.16 2.40039ZM100.16 5.3038C101.332 5.3038 102.284 6.22476 102.284 7.3558C102.284 8.48635 101.332 9.40661 100.16 9.40661C98.9886 9.40661 98.0349 8.48637 98.0349 7.3558C98.0349 6.22476 98.9886 5.3038 100.16 5.3038ZM95.9282 12.4786C95.4204 12.471 94.9209 12.7127 94.6312 13.1584C94.1885 13.8374 94.4006 14.7335 95.1023 15.1606C96.0305 15.7228 97.0377 16.1217 98.0822 16.3516L95.2136 19.1224C94.6263 19.6896 94.6268 20.6083 95.2142 21.1756C95.5086 21.4587 95.8925 21.6004 96.2775 21.6004C96.662 21.6004 97.0473 21.4585 97.3408 21.175L100.159 18.4528L102.98 21.175C103.567 21.7421 104.518 21.7421 105.106 21.175C105.693 20.6081 105.693 19.6884 105.106 19.1224L102.236 16.3522C103.281 16.1223 104.288 15.7232 105.216 15.1606C105.919 14.7335 106.131 13.8365 105.689 13.1584C105.246 12.4792 104.318 12.2746 103.614 12.7024C101.513 13.9786 98.8052 13.9778 96.7044 12.7024C96.4626 12.5553 96.1942 12.4826 95.9282 12.4786V12.4786Z" fill="#33836E"/>
<path fill-rule="evenodd" clip-rule="evenodd" d="M135.271 11.4347C140.232 9.2732 143.54 7.8482 145.195 7.15971C149.921 5.19394 150.903 4.85246 151.544 4.84118C151.684 4.8387 151.999 4.87359 152.203 5.03905C152.375 5.17875 152.423 5.36747 152.445 5.49992C152.468 5.63238 152.496 5.93411 152.474 6.16988C152.218 8.86087 151.109 15.3912 150.546 18.4052C150.307 19.6805 149.837 20.1081 149.383 20.1499C148.394 20.2409 147.644 19.4968 146.687 18.8694C145.189 17.8875 144.343 17.2763 142.889 16.3182C141.208 15.211 142.298 14.6024 143.255 13.6078C143.506 13.3475 147.86 9.38687 147.945 9.02758C147.955 8.98264 147.965 8.81514 147.865 8.7267C147.766 8.63825 147.619 8.6685 147.513 8.69255C147.363 8.72665 144.97 10.3082 140.335 13.4372C139.655 13.9036 139.04 14.1308 138.489 14.1189C137.881 14.1058 136.712 13.7754 135.844 13.4929C134.778 13.1465 133.931 12.9633 134.004 12.3749C134.043 12.0685 134.465 11.7551 135.271 11.4347Z" fill="#33836E"/>
</svg>
